<mxfile host="app.diagrams.net" modified="2023-10-11T14:01:12.310Z" agent="Mozilla/5.0 (Windows NT 10.0; Win64; x64) AppleWebKit/537.36 (KHTML, like Gecko) Chrome/116.0.5845.967 YaBrowser/23.9.1.967 Yowser/2.5 Safari/537.36" etag="5d_jBqm_2GPnqNTyJAJW" version="22.0.4" type="device">
  <diagram id="mculKDjWNxcwX99uYk2L" name="Страница 1">
    <mxGraphModel dx="2026" dy="1127" grid="0" gridSize="10" guides="1" tooltips="1" connect="1" arrows="1" fold="1" page="1" pageScale="1" pageWidth="400000" pageHeight="400000" math="0" shadow="0">
      <root>
        <mxCell id="0" />
        <mxCell id="1" parent="0" />
        <mxCell id="CzE8QsRGte8Shj3lOqac-1" value="PracticumUser" style="shape=table;startSize=30;container=1;collapsible=1;childLayout=tableLayout;fixedRows=1;rowLines=0;fontStyle=1;align=center;resizeLast=1;" parent="1" vertex="1">
          <mxGeometry x="135" y="405" width="240" height="271" as="geometry">
            <mxRectangle x="270" y="170" width="70" height="30" as="alternateBounds" />
          </mxGeometry>
        </mxCell>
        <mxCell id="CzE8QsRGte8Shj3lOqac-2" value="" style="shape=tableRow;horizontal=0;startSize=0;swimlaneHead=0;swimlaneBody=0;fillColor=none;collapsible=0;dropTarget=0;points=[[0,0.5],[1,0.5]];portConstraint=eastwest;top=0;left=0;right=0;bottom=1;" parent="CzE8QsRGte8Shj3lOqac-1" vertex="1">
          <mxGeometry y="30" width="240" height="30" as="geometry" />
        </mxCell>
        <mxCell id="CzE8QsRGte8Shj3lOqac-3" value="PK" style="shape=partialRectangle;connectable=0;fillColor=none;top=0;left=0;bottom=0;right=0;fontStyle=1;overflow=hidden;" parent="CzE8QsRGte8Shj3lOqac-2" vertex="1">
          <mxGeometry width="27.75" height="30" as="geometry">
            <mxRectangle width="27.75" height="30" as="alternateBounds" />
          </mxGeometry>
        </mxCell>
        <mxCell id="CzE8QsRGte8Shj3lOqac-4" value="userID [int]" style="shape=partialRectangle;connectable=0;fillColor=none;top=0;left=0;bottom=0;right=0;align=left;spacingLeft=6;fontStyle=5;overflow=hidden;" parent="CzE8QsRGte8Shj3lOqac-2" vertex="1">
          <mxGeometry x="27.75" width="212.25" height="30" as="geometry">
            <mxRectangle width="212.25" height="30" as="alternateBounds" />
          </mxGeometry>
        </mxCell>
        <mxCell id="CzE8QsRGte8Shj3lOqac-8" value="" style="shape=tableRow;horizontal=0;startSize=0;swimlaneHead=0;swimlaneBody=0;fillColor=none;collapsible=0;dropTarget=0;points=[[0,0.5],[1,0.5]];portConstraint=eastwest;top=0;left=0;right=0;bottom=0;" parent="CzE8QsRGte8Shj3lOqac-1" vertex="1">
          <mxGeometry y="60" width="240" height="30" as="geometry" />
        </mxCell>
        <mxCell id="CzE8QsRGte8Shj3lOqac-9" value="" style="shape=partialRectangle;connectable=0;fillColor=none;top=0;left=0;bottom=0;right=0;editable=1;overflow=hidden;" parent="CzE8QsRGte8Shj3lOqac-8" vertex="1">
          <mxGeometry width="27.75" height="30" as="geometry">
            <mxRectangle width="27.75" height="30" as="alternateBounds" />
          </mxGeometry>
        </mxCell>
        <mxCell id="CzE8QsRGte8Shj3lOqac-10" value="name [string, 255]" style="shape=partialRectangle;connectable=0;fillColor=none;top=0;left=0;bottom=0;right=0;align=left;spacingLeft=6;overflow=hidden;" parent="CzE8QsRGte8Shj3lOqac-8" vertex="1">
          <mxGeometry x="27.75" width="212.25" height="30" as="geometry">
            <mxRectangle width="212.25" height="30" as="alternateBounds" />
          </mxGeometry>
        </mxCell>
        <mxCell id="CzE8QsRGte8Shj3lOqac-11" value="" style="shape=tableRow;horizontal=0;startSize=0;swimlaneHead=0;swimlaneBody=0;fillColor=none;collapsible=0;dropTarget=0;points=[[0,0.5],[1,0.5]];portConstraint=eastwest;top=0;left=0;right=0;bottom=0;" parent="CzE8QsRGte8Shj3lOqac-1" vertex="1">
          <mxGeometry y="90" width="240" height="30" as="geometry" />
        </mxCell>
        <mxCell id="CzE8QsRGte8Shj3lOqac-12" value="" style="shape=partialRectangle;connectable=0;fillColor=none;top=0;left=0;bottom=0;right=0;editable=1;overflow=hidden;" parent="CzE8QsRGte8Shj3lOqac-11" vertex="1">
          <mxGeometry width="27.75" height="30" as="geometry">
            <mxRectangle width="27.75" height="30" as="alternateBounds" />
          </mxGeometry>
        </mxCell>
        <mxCell id="CzE8QsRGte8Shj3lOqac-13" value="surname  [string, 255]" style="shape=partialRectangle;connectable=0;fillColor=none;top=0;left=0;bottom=0;right=0;align=left;spacingLeft=6;overflow=hidden;" parent="CzE8QsRGte8Shj3lOqac-11" vertex="1">
          <mxGeometry x="27.75" width="212.25" height="30" as="geometry">
            <mxRectangle width="212.25" height="30" as="alternateBounds" />
          </mxGeometry>
        </mxCell>
        <mxCell id="CzE8QsRGte8Shj3lOqac-32" value="" style="shape=tableRow;horizontal=0;startSize=0;swimlaneHead=0;swimlaneBody=0;fillColor=none;collapsible=0;dropTarget=0;points=[[0,0.5],[1,0.5]];portConstraint=eastwest;top=0;left=0;right=0;bottom=0;" parent="CzE8QsRGte8Shj3lOqac-1" vertex="1">
          <mxGeometry y="120" width="240" height="30" as="geometry" />
        </mxCell>
        <mxCell id="CzE8QsRGte8Shj3lOqac-33" value="" style="shape=partialRectangle;connectable=0;fillColor=none;top=0;left=0;bottom=0;right=0;editable=1;overflow=hidden;" parent="CzE8QsRGte8Shj3lOqac-32" vertex="1">
          <mxGeometry width="27.75" height="30" as="geometry">
            <mxRectangle width="27.75" height="30" as="alternateBounds" />
          </mxGeometry>
        </mxCell>
        <mxCell id="CzE8QsRGte8Shj3lOqac-34" value="tg_username [string, 255]" style="shape=partialRectangle;connectable=0;fillColor=none;top=0;left=0;bottom=0;right=0;align=left;spacingLeft=6;overflow=hidden;" parent="CzE8QsRGte8Shj3lOqac-32" vertex="1">
          <mxGeometry x="27.75" width="212.25" height="30" as="geometry">
            <mxRectangle width="212.25" height="30" as="alternateBounds" />
          </mxGeometry>
        </mxCell>
        <mxCell id="CzE8QsRGte8Shj3lOqac-35" value="" style="shape=tableRow;horizontal=0;startSize=0;swimlaneHead=0;swimlaneBody=0;fillColor=none;collapsible=0;dropTarget=0;points=[[0,0.5],[1,0.5]];portConstraint=eastwest;top=0;left=0;right=0;bottom=0;" parent="CzE8QsRGte8Shj3lOqac-1" vertex="1">
          <mxGeometry y="150" width="240" height="30" as="geometry" />
        </mxCell>
        <mxCell id="CzE8QsRGte8Shj3lOqac-36" value="" style="shape=partialRectangle;connectable=0;fillColor=none;top=0;left=0;bottom=0;right=0;editable=1;overflow=hidden;" parent="CzE8QsRGte8Shj3lOqac-35" vertex="1">
          <mxGeometry width="27.75" height="30" as="geometry">
            <mxRectangle width="27.75" height="30" as="alternateBounds" />
          </mxGeometry>
        </mxCell>
        <mxCell id="CzE8QsRGte8Shj3lOqac-37" value="registration_date [datetime]" style="shape=partialRectangle;connectable=0;fillColor=none;top=0;left=0;bottom=0;right=0;align=left;spacingLeft=6;overflow=hidden;" parent="CzE8QsRGte8Shj3lOqac-35" vertex="1">
          <mxGeometry x="27.75" width="212.25" height="30" as="geometry">
            <mxRectangle width="212.25" height="30" as="alternateBounds" />
          </mxGeometry>
        </mxCell>
        <mxCell id="2kjwmSUVlxlNV21aNKd8-40" value="" style="shape=tableRow;horizontal=0;startSize=0;swimlaneHead=0;swimlaneBody=0;fillColor=none;collapsible=0;dropTarget=0;points=[[0,0.5],[1,0.5]];portConstraint=eastwest;top=0;left=0;right=0;bottom=0;" parent="CzE8QsRGte8Shj3lOqac-1" vertex="1">
          <mxGeometry y="180" width="240" height="30" as="geometry" />
        </mxCell>
        <mxCell id="2kjwmSUVlxlNV21aNKd8-41" value="" style="shape=partialRectangle;connectable=0;fillColor=none;top=0;left=0;bottom=0;right=0;editable=1;overflow=hidden;" parent="2kjwmSUVlxlNV21aNKd8-40" vertex="1">
          <mxGeometry width="27.75" height="30" as="geometry">
            <mxRectangle width="27.75" height="30" as="alternateBounds" />
          </mxGeometry>
        </mxCell>
        <mxCell id="2kjwmSUVlxlNV21aNKd8-42" value="last_login_date [datetime]" style="shape=partialRectangle;connectable=0;fillColor=none;top=0;left=0;bottom=0;right=0;align=left;spacingLeft=6;overflow=hidden;" parent="2kjwmSUVlxlNV21aNKd8-40" vertex="1">
          <mxGeometry x="27.75" width="212.25" height="30" as="geometry">
            <mxRectangle width="212.25" height="30" as="alternateBounds" />
          </mxGeometry>
        </mxCell>
        <mxCell id="2kjwmSUVlxlNV21aNKd8-37" value="" style="shape=tableRow;horizontal=0;startSize=0;swimlaneHead=0;swimlaneBody=0;fillColor=none;collapsible=0;dropTarget=0;points=[[0,0.5],[1,0.5]];portConstraint=eastwest;top=0;left=0;right=0;bottom=0;" parent="CzE8QsRGte8Shj3lOqac-1" vertex="1">
          <mxGeometry y="210" width="240" height="38" as="geometry" />
        </mxCell>
        <mxCell id="2kjwmSUVlxlNV21aNKd8-38" value="" style="shape=partialRectangle;connectable=0;fillColor=none;top=0;left=0;bottom=0;right=0;editable=1;overflow=hidden;" parent="2kjwmSUVlxlNV21aNKd8-37" vertex="1">
          <mxGeometry width="27.75" height="38" as="geometry">
            <mxRectangle width="27.75" height="38" as="alternateBounds" />
          </mxGeometry>
        </mxCell>
        <mxCell id="2kjwmSUVlxlNV21aNKd8-39" value="vacant_status [boolean]" style="shape=partialRectangle;connectable=0;fillColor=none;top=0;left=0;bottom=0;right=0;align=left;spacingLeft=6;overflow=hidden;" parent="2kjwmSUVlxlNV21aNKd8-37" vertex="1">
          <mxGeometry x="27.75" width="212.25" height="38" as="geometry">
            <mxRectangle width="212.25" height="38" as="alternateBounds" />
          </mxGeometry>
        </mxCell>
        <mxCell id="CzE8QsRGte8Shj3lOqac-38" value="CreatedPair" style="shape=table;startSize=30;container=1;collapsible=1;childLayout=tableLayout;fixedRows=1;rowLines=0;fontStyle=1;align=center;resizeLast=1;" parent="1" vertex="1">
          <mxGeometry x="968" y="243" width="190" height="120" as="geometry" />
        </mxCell>
        <mxCell id="CzE8QsRGte8Shj3lOqac-39" value="" style="shape=tableRow;horizontal=0;startSize=0;swimlaneHead=0;swimlaneBody=0;fillColor=none;collapsible=0;dropTarget=0;points=[[0,0.5],[1,0.5]];portConstraint=eastwest;top=0;left=0;right=0;bottom=0;" parent="CzE8QsRGte8Shj3lOqac-38" vertex="1">
          <mxGeometry y="30" width="190" height="30" as="geometry" />
        </mxCell>
        <mxCell id="CzE8QsRGte8Shj3lOqac-40" value="PK,FK1" style="shape=partialRectangle;connectable=0;fillColor=none;top=0;left=0;bottom=0;right=0;fontStyle=1;overflow=hidden;" parent="CzE8QsRGte8Shj3lOqac-39" vertex="1">
          <mxGeometry width="60" height="30" as="geometry">
            <mxRectangle width="60" height="30" as="alternateBounds" />
          </mxGeometry>
        </mxCell>
        <mxCell id="CzE8QsRGte8Shj3lOqac-41" value="StudentID [int]" style="shape=partialRectangle;connectable=0;fillColor=none;top=0;left=0;bottom=0;right=0;align=left;spacingLeft=6;fontStyle=5;overflow=hidden;" parent="CzE8QsRGte8Shj3lOqac-39" vertex="1">
          <mxGeometry x="60" width="130" height="30" as="geometry">
            <mxRectangle width="130" height="30" as="alternateBounds" />
          </mxGeometry>
        </mxCell>
        <mxCell id="CzE8QsRGte8Shj3lOqac-42" value="" style="shape=tableRow;horizontal=0;startSize=0;swimlaneHead=0;swimlaneBody=0;fillColor=none;collapsible=0;dropTarget=0;points=[[0,0.5],[1,0.5]];portConstraint=eastwest;top=0;left=0;right=0;bottom=1;" parent="CzE8QsRGte8Shj3lOqac-38" vertex="1">
          <mxGeometry y="60" width="190" height="30" as="geometry" />
        </mxCell>
        <mxCell id="CzE8QsRGte8Shj3lOqac-43" value="PK,FK2" style="shape=partialRectangle;connectable=0;fillColor=none;top=0;left=0;bottom=0;right=0;fontStyle=1;overflow=hidden;" parent="CzE8QsRGte8Shj3lOqac-42" vertex="1">
          <mxGeometry width="60" height="30" as="geometry">
            <mxRectangle width="60" height="30" as="alternateBounds" />
          </mxGeometry>
        </mxCell>
        <mxCell id="CzE8QsRGte8Shj3lOqac-44" value="RecruiterID [int]" style="shape=partialRectangle;connectable=0;fillColor=none;top=0;left=0;bottom=0;right=0;align=left;spacingLeft=6;fontStyle=5;overflow=hidden;" parent="CzE8QsRGte8Shj3lOqac-42" vertex="1">
          <mxGeometry x="60" width="130" height="30" as="geometry">
            <mxRectangle width="130" height="30" as="alternateBounds" />
          </mxGeometry>
        </mxCell>
        <mxCell id="CzE8QsRGte8Shj3lOqac-45" value="" style="shape=tableRow;horizontal=0;startSize=0;swimlaneHead=0;swimlaneBody=0;fillColor=none;collapsible=0;dropTarget=0;points=[[0,0.5],[1,0.5]];portConstraint=eastwest;top=0;left=0;right=0;bottom=0;" parent="CzE8QsRGte8Shj3lOqac-38" vertex="1">
          <mxGeometry y="90" width="190" height="30" as="geometry" />
        </mxCell>
        <mxCell id="CzE8QsRGte8Shj3lOqac-46" value="" style="shape=partialRectangle;connectable=0;fillColor=none;top=0;left=0;bottom=0;right=0;editable=1;overflow=hidden;" parent="CzE8QsRGte8Shj3lOqac-45" vertex="1">
          <mxGeometry width="60" height="30" as="geometry">
            <mxRectangle width="60" height="30" as="alternateBounds" />
          </mxGeometry>
        </mxCell>
        <mxCell id="CzE8QsRGte8Shj3lOqac-47" value="date [datetime]" style="shape=partialRectangle;connectable=0;fillColor=none;top=0;left=0;bottom=0;right=0;align=left;spacingLeft=6;overflow=hidden;" parent="CzE8QsRGte8Shj3lOqac-45" vertex="1">
          <mxGeometry x="60" width="130" height="30" as="geometry">
            <mxRectangle width="130" height="30" as="alternateBounds" />
          </mxGeometry>
        </mxCell>
        <mxCell id="2kjwmSUVlxlNV21aNKd8-1" value="Recruiter" style="shape=table;startSize=30;container=1;collapsible=1;childLayout=tableLayout;fixedRows=1;rowLines=0;fontStyle=1;align=center;resizeLast=1;html=1;" parent="1" vertex="1">
          <mxGeometry x="592" y="425" width="180" height="60" as="geometry" />
        </mxCell>
        <mxCell id="2kjwmSUVlxlNV21aNKd8-2" value="" style="shape=tableRow;horizontal=0;startSize=0;swimlaneHead=0;swimlaneBody=0;fillColor=none;collapsible=0;dropTarget=0;points=[[0,0.5],[1,0.5]];portConstraint=eastwest;top=0;left=0;right=0;bottom=1;" parent="2kjwmSUVlxlNV21aNKd8-1" vertex="1">
          <mxGeometry y="30" width="180" height="30" as="geometry" />
        </mxCell>
        <mxCell id="2kjwmSUVlxlNV21aNKd8-3" value="PK" style="shape=partialRectangle;connectable=0;fillColor=none;top=0;left=0;bottom=0;right=0;fontStyle=1;overflow=hidden;whiteSpace=wrap;html=1;" parent="2kjwmSUVlxlNV21aNKd8-2" vertex="1">
          <mxGeometry width="30" height="30" as="geometry">
            <mxRectangle width="30" height="30" as="alternateBounds" />
          </mxGeometry>
        </mxCell>
        <mxCell id="2kjwmSUVlxlNV21aNKd8-4" value="UserID [int]" style="shape=partialRectangle;connectable=0;fillColor=none;top=0;left=0;bottom=0;right=0;align=left;spacingLeft=6;fontStyle=5;overflow=hidden;whiteSpace=wrap;html=1;" parent="2kjwmSUVlxlNV21aNKd8-2" vertex="1">
          <mxGeometry x="30" width="150" height="30" as="geometry">
            <mxRectangle width="150" height="30" as="alternateBounds" />
          </mxGeometry>
        </mxCell>
        <mxCell id="2kjwmSUVlxlNV21aNKd8-14" value="Student" style="shape=table;startSize=30;container=1;collapsible=1;childLayout=tableLayout;fixedRows=1;rowLines=0;fontStyle=1;align=center;resizeLast=1;html=1;" parent="1" vertex="1">
          <mxGeometry x="579" y="227" width="202" height="90" as="geometry" />
        </mxCell>
        <mxCell id="2kjwmSUVlxlNV21aNKd8-15" value="" style="shape=tableRow;horizontal=0;startSize=0;swimlaneHead=0;swimlaneBody=0;fillColor=none;collapsible=0;dropTarget=0;points=[[0,0.5],[1,0.5]];portConstraint=eastwest;top=0;left=0;right=0;bottom=1;" parent="2kjwmSUVlxlNV21aNKd8-14" vertex="1">
          <mxGeometry y="30" width="202" height="30" as="geometry" />
        </mxCell>
        <mxCell id="2kjwmSUVlxlNV21aNKd8-16" value="PK" style="shape=partialRectangle;connectable=0;fillColor=none;top=0;left=0;bottom=0;right=0;fontStyle=1;overflow=hidden;whiteSpace=wrap;html=1;" parent="2kjwmSUVlxlNV21aNKd8-15" vertex="1">
          <mxGeometry width="30" height="30" as="geometry">
            <mxRectangle width="30" height="30" as="alternateBounds" />
          </mxGeometry>
        </mxCell>
        <mxCell id="2kjwmSUVlxlNV21aNKd8-17" value="UserID [int]" style="shape=partialRectangle;connectable=0;fillColor=none;top=0;left=0;bottom=0;right=0;align=left;spacingLeft=6;fontStyle=5;overflow=hidden;whiteSpace=wrap;html=1;" parent="2kjwmSUVlxlNV21aNKd8-15" vertex="1">
          <mxGeometry x="30" width="172" height="30" as="geometry">
            <mxRectangle width="172" height="30" as="alternateBounds" />
          </mxGeometry>
        </mxCell>
        <mxCell id="sqCNQ7C6zreJnJRteWXT-55" value="" style="shape=tableRow;horizontal=0;startSize=0;swimlaneHead=0;swimlaneBody=0;fillColor=none;collapsible=0;dropTarget=0;points=[[0,0.5],[1,0.5]];portConstraint=eastwest;top=0;left=0;right=0;bottom=1;" parent="2kjwmSUVlxlNV21aNKd8-14" vertex="1">
          <mxGeometry y="60" width="202" height="30" as="geometry" />
        </mxCell>
        <mxCell id="sqCNQ7C6zreJnJRteWXT-56" value="FK" style="shape=partialRectangle;connectable=0;fillColor=none;top=0;left=0;bottom=0;right=0;fontStyle=1;overflow=hidden;whiteSpace=wrap;html=1;" parent="sqCNQ7C6zreJnJRteWXT-55" vertex="1">
          <mxGeometry width="30" height="30" as="geometry">
            <mxRectangle width="30" height="30" as="alternateBounds" />
          </mxGeometry>
        </mxCell>
        <mxCell id="sqCNQ7C6zreJnJRteWXT-57" value="profession [int, Profession]" style="shape=table;startSize=30;container=1;collapsible=1;childLayout=tableLayout;fixedRows=1;rowLines=0;fontStyle=1;align=center;resizeLast=1;html=1;" parent="sqCNQ7C6zreJnJRteWXT-55" vertex="1">
          <mxGeometry x="30" width="172" height="30" as="geometry">
            <mxRectangle width="172" height="30" as="alternateBounds" />
          </mxGeometry>
        </mxCell>
        <mxCell id="2kjwmSUVlxlNV21aNKd8-25" value="Profession" style="shape=table;startSize=30;container=1;collapsible=1;childLayout=tableLayout;fixedRows=1;rowLines=0;fontStyle=1;align=center;resizeLast=1;html=1;" parent="1" vertex="1">
          <mxGeometry x="160" y="171" width="180" height="90" as="geometry" />
        </mxCell>
        <mxCell id="2kjwmSUVlxlNV21aNKd8-26" value="" style="shape=tableRow;horizontal=0;startSize=0;swimlaneHead=0;swimlaneBody=0;fillColor=none;collapsible=0;dropTarget=0;points=[[0,0.5],[1,0.5]];portConstraint=eastwest;top=0;left=0;right=0;bottom=1;" parent="2kjwmSUVlxlNV21aNKd8-25" vertex="1">
          <mxGeometry y="30" width="180" height="30" as="geometry" />
        </mxCell>
        <mxCell id="2kjwmSUVlxlNV21aNKd8-27" value="PK" style="shape=partialRectangle;connectable=0;fillColor=none;top=0;left=0;bottom=0;right=0;fontStyle=1;overflow=hidden;whiteSpace=wrap;html=1;" parent="2kjwmSUVlxlNV21aNKd8-26" vertex="1">
          <mxGeometry width="30" height="30" as="geometry">
            <mxRectangle width="30" height="30" as="alternateBounds" />
          </mxGeometry>
        </mxCell>
        <mxCell id="2kjwmSUVlxlNV21aNKd8-28" value="ProfessionID [int]" style="shape=partialRectangle;connectable=0;fillColor=none;top=0;left=0;bottom=0;right=0;align=left;spacingLeft=6;fontStyle=5;overflow=hidden;whiteSpace=wrap;html=1;" parent="2kjwmSUVlxlNV21aNKd8-26" vertex="1">
          <mxGeometry x="30" width="150" height="30" as="geometry">
            <mxRectangle width="150" height="30" as="alternateBounds" />
          </mxGeometry>
        </mxCell>
        <mxCell id="2kjwmSUVlxlNV21aNKd8-29" value="" style="shape=tableRow;horizontal=0;startSize=0;swimlaneHead=0;swimlaneBody=0;fillColor=none;collapsible=0;dropTarget=0;points=[[0,0.5],[1,0.5]];portConstraint=eastwest;top=0;left=0;right=0;bottom=0;" parent="2kjwmSUVlxlNV21aNKd8-25" vertex="1">
          <mxGeometry y="60" width="180" height="30" as="geometry" />
        </mxCell>
        <mxCell id="2kjwmSUVlxlNV21aNKd8-30" value="" style="shape=partialRectangle;connectable=0;fillColor=none;top=0;left=0;bottom=0;right=0;editable=1;overflow=hidden;whiteSpace=wrap;html=1;" parent="2kjwmSUVlxlNV21aNKd8-29" vertex="1">
          <mxGeometry width="30" height="30" as="geometry">
            <mxRectangle width="30" height="30" as="alternateBounds" />
          </mxGeometry>
        </mxCell>
        <mxCell id="2kjwmSUVlxlNV21aNKd8-31" value="title [string, 255]" style="shape=partialRectangle;connectable=0;fillColor=none;top=0;left=0;bottom=0;right=0;align=left;spacingLeft=6;overflow=hidden;whiteSpace=wrap;html=1;" parent="2kjwmSUVlxlNV21aNKd8-29" vertex="1">
          <mxGeometry x="30" width="150" height="30" as="geometry">
            <mxRectangle width="150" height="30" as="alternateBounds" />
          </mxGeometry>
        </mxCell>
        <mxCell id="2kjwmSUVlxlNV21aNKd8-32" value="" style="endArrow=none;html=1;rounded=0;exitX=1;exitY=0.5;exitDx=0;exitDy=0;entryX=0;entryY=0.5;entryDx=0;entryDy=0;" parent="1" source="2kjwmSUVlxlNV21aNKd8-26" target="sqCNQ7C6zreJnJRteWXT-55" edge="1">
          <mxGeometry relative="1" as="geometry">
            <mxPoint x="160" y="154" as="sourcePoint" />
            <mxPoint x="320" y="154" as="targetPoint" />
          </mxGeometry>
        </mxCell>
        <mxCell id="2kjwmSUVlxlNV21aNKd8-33" value="N" style="resizable=0;html=1;whiteSpace=wrap;align=right;verticalAlign=bottom;" parent="2kjwmSUVlxlNV21aNKd8-32" connectable="0" vertex="1">
          <mxGeometry x="1" relative="1" as="geometry" />
        </mxCell>
        <mxCell id="2kjwmSUVlxlNV21aNKd8-43" value="PassedPair" style="shape=table;startSize=30;container=1;collapsible=1;childLayout=tableLayout;fixedRows=1;rowLines=0;fontStyle=1;align=center;resizeLast=1;" parent="1" vertex="1">
          <mxGeometry x="968" y="466" width="220" height="150" as="geometry" />
        </mxCell>
        <mxCell id="2kjwmSUVlxlNV21aNKd8-44" value="" style="shape=tableRow;horizontal=0;startSize=0;swimlaneHead=0;swimlaneBody=0;fillColor=none;collapsible=0;dropTarget=0;points=[[0,0.5],[1,0.5]];portConstraint=eastwest;top=0;left=0;right=0;bottom=0;" parent="2kjwmSUVlxlNV21aNKd8-43" vertex="1">
          <mxGeometry y="30" width="220" height="30" as="geometry" />
        </mxCell>
        <mxCell id="2kjwmSUVlxlNV21aNKd8-45" value="PK,FK1" style="shape=partialRectangle;connectable=0;fillColor=none;top=0;left=0;bottom=0;right=0;fontStyle=1;overflow=hidden;" parent="2kjwmSUVlxlNV21aNKd8-44" vertex="1">
          <mxGeometry width="60" height="30" as="geometry">
            <mxRectangle width="60" height="30" as="alternateBounds" />
          </mxGeometry>
        </mxCell>
        <mxCell id="2kjwmSUVlxlNV21aNKd8-46" value="StudentID [int]" style="shape=partialRectangle;connectable=0;fillColor=none;top=0;left=0;bottom=0;right=0;align=left;spacingLeft=6;fontStyle=5;overflow=hidden;" parent="2kjwmSUVlxlNV21aNKd8-44" vertex="1">
          <mxGeometry x="60" width="160" height="30" as="geometry">
            <mxRectangle width="160" height="30" as="alternateBounds" />
          </mxGeometry>
        </mxCell>
        <mxCell id="2kjwmSUVlxlNV21aNKd8-47" value="" style="shape=tableRow;horizontal=0;startSize=0;swimlaneHead=0;swimlaneBody=0;fillColor=none;collapsible=0;dropTarget=0;points=[[0,0.5],[1,0.5]];portConstraint=eastwest;top=0;left=0;right=0;bottom=1;" parent="2kjwmSUVlxlNV21aNKd8-43" vertex="1">
          <mxGeometry y="60" width="220" height="30" as="geometry" />
        </mxCell>
        <mxCell id="2kjwmSUVlxlNV21aNKd8-48" value="PK,FK2" style="shape=partialRectangle;connectable=0;fillColor=none;top=0;left=0;bottom=0;right=0;fontStyle=1;overflow=hidden;" parent="2kjwmSUVlxlNV21aNKd8-47" vertex="1">
          <mxGeometry width="60" height="30" as="geometry">
            <mxRectangle width="60" height="30" as="alternateBounds" />
          </mxGeometry>
        </mxCell>
        <mxCell id="2kjwmSUVlxlNV21aNKd8-49" value="RecruiterID [int]" style="shape=partialRectangle;connectable=0;fillColor=none;top=0;left=0;bottom=0;right=0;align=left;spacingLeft=6;fontStyle=5;overflow=hidden;" parent="2kjwmSUVlxlNV21aNKd8-47" vertex="1">
          <mxGeometry x="60" width="160" height="30" as="geometry">
            <mxRectangle width="160" height="30" as="alternateBounds" />
          </mxGeometry>
        </mxCell>
        <mxCell id="2kjwmSUVlxlNV21aNKd8-50" value="" style="shape=tableRow;horizontal=0;startSize=0;swimlaneHead=0;swimlaneBody=0;fillColor=none;collapsible=0;dropTarget=0;points=[[0,0.5],[1,0.5]];portConstraint=eastwest;top=0;left=0;right=0;bottom=0;" parent="2kjwmSUVlxlNV21aNKd8-43" vertex="1">
          <mxGeometry y="90" width="220" height="30" as="geometry" />
        </mxCell>
        <mxCell id="2kjwmSUVlxlNV21aNKd8-51" value="" style="shape=partialRectangle;connectable=0;fillColor=none;top=0;left=0;bottom=0;right=0;editable=1;overflow=hidden;" parent="2kjwmSUVlxlNV21aNKd8-50" vertex="1">
          <mxGeometry width="60" height="30" as="geometry">
            <mxRectangle width="60" height="30" as="alternateBounds" />
          </mxGeometry>
        </mxCell>
        <mxCell id="2kjwmSUVlxlNV21aNKd8-52" value="date [datetime]" style="shape=partialRectangle;connectable=0;fillColor=none;top=0;left=0;bottom=0;right=0;align=left;spacingLeft=6;overflow=hidden;" parent="2kjwmSUVlxlNV21aNKd8-50" vertex="1">
          <mxGeometry x="60" width="160" height="30" as="geometry">
            <mxRectangle width="160" height="30" as="alternateBounds" />
          </mxGeometry>
        </mxCell>
        <mxCell id="2kjwmSUVlxlNV21aNKd8-53" value="" style="shape=tableRow;horizontal=0;startSize=0;swimlaneHead=0;swimlaneBody=0;fillColor=none;collapsible=0;dropTarget=0;points=[[0,0.5],[1,0.5]];portConstraint=eastwest;top=0;left=0;right=0;bottom=0;" parent="2kjwmSUVlxlNV21aNKd8-43" vertex="1">
          <mxGeometry y="120" width="220" height="30" as="geometry" />
        </mxCell>
        <mxCell id="2kjwmSUVlxlNV21aNKd8-54" value="" style="shape=partialRectangle;connectable=0;fillColor=none;top=0;left=0;bottom=0;right=0;editable=1;overflow=hidden;" parent="2kjwmSUVlxlNV21aNKd8-53" vertex="1">
          <mxGeometry width="60" height="30" as="geometry">
            <mxRectangle width="60" height="30" as="alternateBounds" />
          </mxGeometry>
        </mxCell>
        <mxCell id="2kjwmSUVlxlNV21aNKd8-55" value="interview_status [boolean]" style="shape=partialRectangle;connectable=0;fillColor=none;top=0;left=0;bottom=0;right=0;align=left;spacingLeft=6;overflow=hidden;" parent="2kjwmSUVlxlNV21aNKd8-53" vertex="1">
          <mxGeometry x="60" width="160" height="30" as="geometry">
            <mxRectangle width="160" height="30" as="alternateBounds" />
          </mxGeometry>
        </mxCell>
        <mxCell id="sqCNQ7C6zreJnJRteWXT-1" value="" style="endArrow=none;html=1;rounded=0;exitX=0;exitY=0.5;exitDx=0;exitDy=0;entryX=1;entryY=0.5;entryDx=0;entryDy=0;" parent="1" source="2kjwmSUVlxlNV21aNKd8-2" target="CzE8QsRGte8Shj3lOqac-2" edge="1">
          <mxGeometry relative="1" as="geometry">
            <mxPoint x="1064" y="409" as="sourcePoint" />
            <mxPoint x="1224" y="409" as="targetPoint" />
          </mxGeometry>
        </mxCell>
        <mxCell id="sqCNQ7C6zreJnJRteWXT-2" value="1" style="resizable=0;html=1;whiteSpace=wrap;align=right;verticalAlign=bottom;" parent="sqCNQ7C6zreJnJRteWXT-1" connectable="0" vertex="1">
          <mxGeometry x="1" relative="1" as="geometry" />
        </mxCell>
        <mxCell id="sqCNQ7C6zreJnJRteWXT-3" value="" style="endArrow=none;html=1;rounded=0;entryX=1;entryY=0.5;entryDx=0;entryDy=0;exitX=0;exitY=0.5;exitDx=0;exitDy=0;" parent="1" source="2kjwmSUVlxlNV21aNKd8-15" target="CzE8QsRGte8Shj3lOqac-2" edge="1">
          <mxGeometry relative="1" as="geometry">
            <mxPoint x="541" y="591" as="sourcePoint" />
            <mxPoint x="466" y="344" as="targetPoint" />
          </mxGeometry>
        </mxCell>
        <mxCell id="sqCNQ7C6zreJnJRteWXT-4" value="1" style="resizable=0;html=1;whiteSpace=wrap;align=right;verticalAlign=bottom;" parent="sqCNQ7C6zreJnJRteWXT-3" connectable="0" vertex="1">
          <mxGeometry x="1" relative="1" as="geometry" />
        </mxCell>
        <mxCell id="sqCNQ7C6zreJnJRteWXT-5" value="" style="endArrow=none;html=1;rounded=0;exitX=1;exitY=0.5;exitDx=0;exitDy=0;entryX=0;entryY=0.5;entryDx=0;entryDy=0;" parent="1" source="2kjwmSUVlxlNV21aNKd8-15" target="2kjwmSUVlxlNV21aNKd8-44" edge="1">
          <mxGeometry relative="1" as="geometry">
            <mxPoint x="1064" y="409" as="sourcePoint" />
            <mxPoint x="1224" y="409" as="targetPoint" />
          </mxGeometry>
        </mxCell>
        <mxCell id="sqCNQ7C6zreJnJRteWXT-6" value="M" style="resizable=0;html=1;whiteSpace=wrap;align=left;verticalAlign=bottom;" parent="sqCNQ7C6zreJnJRteWXT-5" connectable="0" vertex="1">
          <mxGeometry x="-1" relative="1" as="geometry" />
        </mxCell>
        <mxCell id="sqCNQ7C6zreJnJRteWXT-7" value="N" style="resizable=0;html=1;whiteSpace=wrap;align=right;verticalAlign=bottom;" parent="sqCNQ7C6zreJnJRteWXT-5" connectable="0" vertex="1">
          <mxGeometry x="1" relative="1" as="geometry" />
        </mxCell>
        <mxCell id="sqCNQ7C6zreJnJRteWXT-8" value="" style="endArrow=none;html=1;rounded=0;exitX=1;exitY=0.5;exitDx=0;exitDy=0;entryX=0;entryY=0.5;entryDx=0;entryDy=0;" parent="1" source="2kjwmSUVlxlNV21aNKd8-15" target="CzE8QsRGte8Shj3lOqac-39" edge="1">
          <mxGeometry relative="1" as="geometry">
            <mxPoint x="779" y="521" as="sourcePoint" />
            <mxPoint x="978" y="521" as="targetPoint" />
          </mxGeometry>
        </mxCell>
        <mxCell id="sqCNQ7C6zreJnJRteWXT-9" value="M" style="resizable=0;html=1;whiteSpace=wrap;align=left;verticalAlign=bottom;" parent="sqCNQ7C6zreJnJRteWXT-8" connectable="0" vertex="1">
          <mxGeometry x="-1" relative="1" as="geometry" />
        </mxCell>
        <mxCell id="sqCNQ7C6zreJnJRteWXT-10" value="N" style="resizable=0;html=1;whiteSpace=wrap;align=right;verticalAlign=bottom;" parent="sqCNQ7C6zreJnJRteWXT-8" connectable="0" vertex="1">
          <mxGeometry x="1" relative="1" as="geometry" />
        </mxCell>
        <mxCell id="sqCNQ7C6zreJnJRteWXT-11" value="" style="endArrow=none;html=1;rounded=0;exitX=1;exitY=0.5;exitDx=0;exitDy=0;entryX=0;entryY=0.5;entryDx=0;entryDy=0;" parent="1" source="2kjwmSUVlxlNV21aNKd8-2" target="CzE8QsRGte8Shj3lOqac-42" edge="1">
          <mxGeometry relative="1" as="geometry">
            <mxPoint x="779" y="521" as="sourcePoint" />
            <mxPoint x="978" y="298" as="targetPoint" />
          </mxGeometry>
        </mxCell>
        <mxCell id="sqCNQ7C6zreJnJRteWXT-12" value="M" style="resizable=0;html=1;whiteSpace=wrap;align=left;verticalAlign=bottom;" parent="sqCNQ7C6zreJnJRteWXT-11" connectable="0" vertex="1">
          <mxGeometry x="-1" relative="1" as="geometry" />
        </mxCell>
        <mxCell id="sqCNQ7C6zreJnJRteWXT-13" value="N" style="resizable=0;html=1;whiteSpace=wrap;align=right;verticalAlign=bottom;" parent="sqCNQ7C6zreJnJRteWXT-11" connectable="0" vertex="1">
          <mxGeometry x="1" relative="1" as="geometry" />
        </mxCell>
        <mxCell id="sqCNQ7C6zreJnJRteWXT-14" value="" style="endArrow=none;html=1;rounded=0;exitX=1;exitY=0.5;exitDx=0;exitDy=0;entryX=0;entryY=0.5;entryDx=0;entryDy=0;" parent="1" source="2kjwmSUVlxlNV21aNKd8-2" target="2kjwmSUVlxlNV21aNKd8-47" edge="1">
          <mxGeometry relative="1" as="geometry">
            <mxPoint x="779" y="268" as="sourcePoint" />
            <mxPoint x="978" y="328" as="targetPoint" />
          </mxGeometry>
        </mxCell>
        <mxCell id="sqCNQ7C6zreJnJRteWXT-15" value="M" style="resizable=0;html=1;whiteSpace=wrap;align=left;verticalAlign=bottom;" parent="sqCNQ7C6zreJnJRteWXT-14" connectable="0" vertex="1">
          <mxGeometry x="-1" relative="1" as="geometry" />
        </mxCell>
        <mxCell id="sqCNQ7C6zreJnJRteWXT-16" value="N" style="resizable=0;html=1;whiteSpace=wrap;align=right;verticalAlign=bottom;" parent="sqCNQ7C6zreJnJRteWXT-14" connectable="0" vertex="1">
          <mxGeometry x="1" relative="1" as="geometry" />
        </mxCell>
        <mxCell id="sqCNQ7C6zreJnJRteWXT-17" value="AdminUser" style="shape=table;startSize=30;container=1;collapsible=1;childLayout=tableLayout;fixedRows=1;rowLines=0;fontStyle=1;align=center;resizeLast=1;" parent="1" vertex="1">
          <mxGeometry x="413" y="525" width="240" height="211" as="geometry">
            <mxRectangle x="270" y="170" width="70" height="30" as="alternateBounds" />
          </mxGeometry>
        </mxCell>
        <mxCell id="sqCNQ7C6zreJnJRteWXT-18" value="" style="shape=tableRow;horizontal=0;startSize=0;swimlaneHead=0;swimlaneBody=0;fillColor=none;collapsible=0;dropTarget=0;points=[[0,0.5],[1,0.5]];portConstraint=eastwest;top=0;left=0;right=0;bottom=1;" parent="sqCNQ7C6zreJnJRteWXT-17" vertex="1">
          <mxGeometry y="30" width="240" height="30" as="geometry" />
        </mxCell>
        <mxCell id="sqCNQ7C6zreJnJRteWXT-19" value="PK" style="shape=partialRectangle;connectable=0;fillColor=none;top=0;left=0;bottom=0;right=0;fontStyle=1;overflow=hidden;" parent="sqCNQ7C6zreJnJRteWXT-18" vertex="1">
          <mxGeometry width="30" height="30" as="geometry">
            <mxRectangle width="30" height="30" as="alternateBounds" />
          </mxGeometry>
        </mxCell>
        <mxCell id="sqCNQ7C6zreJnJRteWXT-20" value="userID [int]" style="shape=partialRectangle;connectable=0;fillColor=none;top=0;left=0;bottom=0;right=0;align=left;spacingLeft=6;fontStyle=5;overflow=hidden;" parent="sqCNQ7C6zreJnJRteWXT-18" vertex="1">
          <mxGeometry x="30" width="210" height="30" as="geometry">
            <mxRectangle width="210" height="30" as="alternateBounds" />
          </mxGeometry>
        </mxCell>
        <mxCell id="sqCNQ7C6zreJnJRteWXT-21" value="" style="shape=tableRow;horizontal=0;startSize=0;swimlaneHead=0;swimlaneBody=0;fillColor=none;collapsible=0;dropTarget=0;points=[[0,0.5],[1,0.5]];portConstraint=eastwest;top=0;left=0;right=0;bottom=0;" parent="sqCNQ7C6zreJnJRteWXT-17" vertex="1">
          <mxGeometry y="60" width="240" height="30" as="geometry" />
        </mxCell>
        <mxCell id="sqCNQ7C6zreJnJRteWXT-22" value="" style="shape=partialRectangle;connectable=0;fillColor=none;top=0;left=0;bottom=0;right=0;editable=1;overflow=hidden;" parent="sqCNQ7C6zreJnJRteWXT-21" vertex="1">
          <mxGeometry width="30" height="30" as="geometry">
            <mxRectangle width="30" height="30" as="alternateBounds" />
          </mxGeometry>
        </mxCell>
        <mxCell id="sqCNQ7C6zreJnJRteWXT-23" value="username [string, 255]" style="shape=partialRectangle;connectable=0;fillColor=none;top=0;left=0;bottom=0;right=0;align=left;spacingLeft=6;overflow=hidden;" parent="sqCNQ7C6zreJnJRteWXT-21" vertex="1">
          <mxGeometry x="30" width="210" height="30" as="geometry">
            <mxRectangle width="210" height="30" as="alternateBounds" />
          </mxGeometry>
        </mxCell>
        <mxCell id="sqCNQ7C6zreJnJRteWXT-39" value="" style="shape=tableRow;horizontal=0;startSize=0;swimlaneHead=0;swimlaneBody=0;fillColor=none;collapsible=0;dropTarget=0;points=[[0,0.5],[1,0.5]];portConstraint=eastwest;top=0;left=0;right=0;bottom=0;" parent="sqCNQ7C6zreJnJRteWXT-17" vertex="1">
          <mxGeometry y="90" width="240" height="30" as="geometry" />
        </mxCell>
        <mxCell id="sqCNQ7C6zreJnJRteWXT-40" value="" style="shape=partialRectangle;connectable=0;fillColor=none;top=0;left=0;bottom=0;right=0;editable=1;overflow=hidden;" parent="sqCNQ7C6zreJnJRteWXT-39" vertex="1">
          <mxGeometry width="30" height="30" as="geometry">
            <mxRectangle width="30" height="30" as="alternateBounds" />
          </mxGeometry>
        </mxCell>
        <mxCell id="sqCNQ7C6zreJnJRteWXT-41" value="first_name [string, 255]" style="shape=partialRectangle;connectable=0;fillColor=none;top=0;left=0;bottom=0;right=0;align=left;spacingLeft=6;overflow=hidden;" parent="sqCNQ7C6zreJnJRteWXT-39" vertex="1">
          <mxGeometry x="30" width="210" height="30" as="geometry">
            <mxRectangle width="210" height="30" as="alternateBounds" />
          </mxGeometry>
        </mxCell>
        <mxCell id="sqCNQ7C6zreJnJRteWXT-24" value="" style="shape=tableRow;horizontal=0;startSize=0;swimlaneHead=0;swimlaneBody=0;fillColor=none;collapsible=0;dropTarget=0;points=[[0,0.5],[1,0.5]];portConstraint=eastwest;top=0;left=0;right=0;bottom=0;" parent="sqCNQ7C6zreJnJRteWXT-17" vertex="1">
          <mxGeometry y="120" width="240" height="30" as="geometry" />
        </mxCell>
        <mxCell id="sqCNQ7C6zreJnJRteWXT-25" value="" style="shape=partialRectangle;connectable=0;fillColor=none;top=0;left=0;bottom=0;right=0;editable=1;overflow=hidden;" parent="sqCNQ7C6zreJnJRteWXT-24" vertex="1">
          <mxGeometry width="30" height="30" as="geometry">
            <mxRectangle width="30" height="30" as="alternateBounds" />
          </mxGeometry>
        </mxCell>
        <mxCell id="sqCNQ7C6zreJnJRteWXT-26" value="last_name [string, 255]" style="shape=partialRectangle;connectable=0;fillColor=none;top=0;left=0;bottom=0;right=0;align=left;spacingLeft=6;overflow=hidden;" parent="sqCNQ7C6zreJnJRteWXT-24" vertex="1">
          <mxGeometry x="30" width="210" height="30" as="geometry">
            <mxRectangle width="210" height="30" as="alternateBounds" />
          </mxGeometry>
        </mxCell>
        <mxCell id="sqCNQ7C6zreJnJRteWXT-27" value="" style="shape=tableRow;horizontal=0;startSize=0;swimlaneHead=0;swimlaneBody=0;fillColor=none;collapsible=0;dropTarget=0;points=[[0,0.5],[1,0.5]];portConstraint=eastwest;top=0;left=0;right=0;bottom=0;" parent="sqCNQ7C6zreJnJRteWXT-17" vertex="1">
          <mxGeometry y="150" width="240" height="30" as="geometry" />
        </mxCell>
        <mxCell id="sqCNQ7C6zreJnJRteWXT-28" value="" style="shape=partialRectangle;connectable=0;fillColor=none;top=0;left=0;bottom=0;right=0;editable=1;overflow=hidden;" parent="sqCNQ7C6zreJnJRteWXT-27" vertex="1">
          <mxGeometry width="30" height="30" as="geometry">
            <mxRectangle width="30" height="30" as="alternateBounds" />
          </mxGeometry>
        </mxCell>
        <mxCell id="sqCNQ7C6zreJnJRteWXT-29" value="email [string, 255]" style="shape=partialRectangle;connectable=0;fillColor=none;top=0;left=0;bottom=0;right=0;align=left;spacingLeft=6;overflow=hidden;" parent="sqCNQ7C6zreJnJRteWXT-27" vertex="1">
          <mxGeometry x="30" width="210" height="30" as="geometry">
            <mxRectangle width="210" height="30" as="alternateBounds" />
          </mxGeometry>
        </mxCell>
        <mxCell id="sqCNQ7C6zreJnJRteWXT-30" value="" style="shape=tableRow;horizontal=0;startSize=0;swimlaneHead=0;swimlaneBody=0;fillColor=none;collapsible=0;dropTarget=0;points=[[0,0.5],[1,0.5]];portConstraint=eastwest;top=0;left=0;right=0;bottom=0;" parent="sqCNQ7C6zreJnJRteWXT-17" vertex="1">
          <mxGeometry y="180" width="240" height="30" as="geometry" />
        </mxCell>
        <mxCell id="sqCNQ7C6zreJnJRteWXT-31" value="" style="shape=partialRectangle;connectable=0;fillColor=none;top=0;left=0;bottom=0;right=0;editable=1;overflow=hidden;" parent="sqCNQ7C6zreJnJRteWXT-30" vertex="1">
          <mxGeometry width="30" height="30" as="geometry">
            <mxRectangle width="30" height="30" as="alternateBounds" />
          </mxGeometry>
        </mxCell>
        <mxCell id="sqCNQ7C6zreJnJRteWXT-32" value="password [string, (hash)]" style="shape=partialRectangle;connectable=0;fillColor=none;top=0;left=0;bottom=0;right=0;align=left;spacingLeft=6;overflow=hidden;" parent="sqCNQ7C6zreJnJRteWXT-30" vertex="1">
          <mxGeometry x="30" width="210" height="30" as="geometry">
            <mxRectangle width="210" height="30" as="alternateBounds" />
          </mxGeometry>
        </mxCell>
        <mxCell id="0UUJ1o9QdkHCq-3cIvoO-4" value="start_search_time [datetime]" style="shape=partialRectangle;connectable=0;fillColor=none;top=0;left=0;bottom=0;right=0;align=left;spacingLeft=6;overflow=hidden;" parent="1" vertex="1">
          <mxGeometry x="163" y="648" width="210" height="30" as="geometry">
            <mxRectangle width="210" height="30" as="alternateBounds" />
          </mxGeometry>
        </mxCell>
        <mxCell id="9_Fk11H1bgNVgyoADMOQ-2" value="FormUrl" style="shape=table;startSize=30;container=1;collapsible=1;childLayout=tableLayout;fixedRows=1;rowLines=0;fontStyle=1;align=center;resizeLast=1;" vertex="1" parent="1">
          <mxGeometry x="691" y="548" width="240" height="150" as="geometry">
            <mxRectangle x="270" y="170" width="70" height="30" as="alternateBounds" />
          </mxGeometry>
        </mxCell>
        <mxCell id="9_Fk11H1bgNVgyoADMOQ-3" value="" style="shape=tableRow;horizontal=0;startSize=0;swimlaneHead=0;swimlaneBody=0;fillColor=none;collapsible=0;dropTarget=0;points=[[0,0.5],[1,0.5]];portConstraint=eastwest;top=0;left=0;right=0;bottom=1;" vertex="1" parent="9_Fk11H1bgNVgyoADMOQ-2">
          <mxGeometry y="30" width="240" height="30" as="geometry" />
        </mxCell>
        <mxCell id="9_Fk11H1bgNVgyoADMOQ-4" value="PK" style="shape=partialRectangle;connectable=0;fillColor=none;top=0;left=0;bottom=0;right=0;fontStyle=1;overflow=hidden;" vertex="1" parent="9_Fk11H1bgNVgyoADMOQ-3">
          <mxGeometry width="30" height="30" as="geometry">
            <mxRectangle width="30" height="30" as="alternateBounds" />
          </mxGeometry>
        </mxCell>
        <mxCell id="9_Fk11H1bgNVgyoADMOQ-5" value="FormUrlID [int]" style="shape=partialRectangle;connectable=0;fillColor=none;top=0;left=0;bottom=0;right=0;align=left;spacingLeft=6;fontStyle=5;overflow=hidden;" vertex="1" parent="9_Fk11H1bgNVgyoADMOQ-3">
          <mxGeometry x="30" width="210" height="30" as="geometry">
            <mxRectangle width="210" height="30" as="alternateBounds" />
          </mxGeometry>
        </mxCell>
        <mxCell id="9_Fk11H1bgNVgyoADMOQ-6" value="" style="shape=tableRow;horizontal=0;startSize=0;swimlaneHead=0;swimlaneBody=0;fillColor=none;collapsible=0;dropTarget=0;points=[[0,0.5],[1,0.5]];portConstraint=eastwest;top=0;left=0;right=0;bottom=0;" vertex="1" parent="9_Fk11H1bgNVgyoADMOQ-2">
          <mxGeometry y="60" width="240" height="30" as="geometry" />
        </mxCell>
        <mxCell id="9_Fk11H1bgNVgyoADMOQ-7" value="" style="shape=partialRectangle;connectable=0;fillColor=none;top=0;left=0;bottom=0;right=0;editable=1;overflow=hidden;" vertex="1" parent="9_Fk11H1bgNVgyoADMOQ-6">
          <mxGeometry width="30" height="30" as="geometry">
            <mxRectangle width="30" height="30" as="alternateBounds" />
          </mxGeometry>
        </mxCell>
        <mxCell id="9_Fk11H1bgNVgyoADMOQ-8" value="title [string, 255]" style="shape=partialRectangle;connectable=0;fillColor=none;top=0;left=0;bottom=0;right=0;align=left;spacingLeft=6;overflow=hidden;" vertex="1" parent="9_Fk11H1bgNVgyoADMOQ-6">
          <mxGeometry x="30" width="210" height="30" as="geometry">
            <mxRectangle width="210" height="30" as="alternateBounds" />
          </mxGeometry>
        </mxCell>
        <mxCell id="9_Fk11H1bgNVgyoADMOQ-9" value="" style="shape=tableRow;horizontal=0;startSize=0;swimlaneHead=0;swimlaneBody=0;fillColor=none;collapsible=0;dropTarget=0;points=[[0,0.5],[1,0.5]];portConstraint=eastwest;top=0;left=0;right=0;bottom=0;" vertex="1" parent="9_Fk11H1bgNVgyoADMOQ-2">
          <mxGeometry y="90" width="240" height="30" as="geometry" />
        </mxCell>
        <mxCell id="9_Fk11H1bgNVgyoADMOQ-10" value="" style="shape=partialRectangle;connectable=0;fillColor=none;top=0;left=0;bottom=0;right=0;editable=1;overflow=hidden;" vertex="1" parent="9_Fk11H1bgNVgyoADMOQ-9">
          <mxGeometry width="30" height="30" as="geometry">
            <mxRectangle width="30" height="30" as="alternateBounds" />
          </mxGeometry>
        </mxCell>
        <mxCell id="9_Fk11H1bgNVgyoADMOQ-11" value="url [string, 200]" style="shape=partialRectangle;connectable=0;fillColor=none;top=0;left=0;bottom=0;right=0;align=left;spacingLeft=6;overflow=hidden;" vertex="1" parent="9_Fk11H1bgNVgyoADMOQ-9">
          <mxGeometry x="30" width="210" height="30" as="geometry">
            <mxRectangle width="210" height="30" as="alternateBounds" />
          </mxGeometry>
        </mxCell>
        <mxCell id="9_Fk11H1bgNVgyoADMOQ-12" value="" style="shape=tableRow;horizontal=0;startSize=0;swimlaneHead=0;swimlaneBody=0;fillColor=none;collapsible=0;dropTarget=0;points=[[0,0.5],[1,0.5]];portConstraint=eastwest;top=0;left=0;right=0;bottom=0;" vertex="1" parent="9_Fk11H1bgNVgyoADMOQ-2">
          <mxGeometry y="120" width="240" height="30" as="geometry" />
        </mxCell>
        <mxCell id="9_Fk11H1bgNVgyoADMOQ-13" value="" style="shape=partialRectangle;connectable=0;fillColor=none;top=0;left=0;bottom=0;right=0;editable=1;overflow=hidden;" vertex="1" parent="9_Fk11H1bgNVgyoADMOQ-12">
          <mxGeometry width="30" height="30" as="geometry">
            <mxRectangle width="30" height="30" as="alternateBounds" />
          </mxGeometry>
        </mxCell>
        <mxCell id="9_Fk11H1bgNVgyoADMOQ-14" value="url_key [string, 255]" style="shape=partialRectangle;connectable=0;fillColor=none;top=0;left=0;bottom=0;right=0;align=left;spacingLeft=6;overflow=hidden;" vertex="1" parent="9_Fk11H1bgNVgyoADMOQ-12">
          <mxGeometry x="30" width="210" height="30" as="geometry">
            <mxRectangle width="210" height="30" as="alternateBounds" />
          </mxGeometry>
        </mxCell>
      </root>
    </mxGraphModel>
  </diagram>
</mxfile>
